<svg width="20" height="21" viewBox="0 0 20 21" fill="none" xmlns="http://www.w3.org/2000/svg">
<path d="M16.875 10.5C16.875 11.8597 16.4718 13.189 15.7164 14.3195C14.9609 15.4501 13.8872 16.3313 12.631 16.8517C11.3747 17.372 9.99238 17.5082 8.65876 17.2429C7.32514 16.9776 6.10013 16.3228 5.13864 15.3614C4.17716 14.3999 3.52238 13.1749 3.2571 11.8412C2.99183 10.5076 3.12798 9.12529 3.64833 7.86905C4.16868 6.61281 5.04987 5.53908 6.18046 4.78365C7.31105 4.02821 8.64026 3.625 10 3.625C11.8234 3.625 13.5721 4.34933 14.8614 5.63864C16.1507 6.92795 16.875 8.67664 16.875 10.5Z" fill="#1C1C1C" fill-opacity="0.1"/>
<path d="M10.625 6.75002V10.1461L13.4469 11.8391C13.589 11.9245 13.6914 12.0628 13.7316 12.2237C13.7717 12.3845 13.7463 12.5548 13.6609 12.6969C13.5756 12.839 13.4372 12.9414 13.2764 12.9816C13.1155 13.0217 12.9453 12.9963 12.8031 12.911L9.67812 11.036C9.58563 10.9804 9.50911 10.9018 9.45599 10.8079C9.40287 10.714 9.37497 10.6079 9.375 10.5V6.75002C9.375 6.58426 9.44085 6.42529 9.55806 6.30808C9.67527 6.19087 9.83424 6.12502 10 6.12502C10.1658 6.12502 10.3247 6.19087 10.4419 6.30808C10.5592 6.42529 10.625 6.58426 10.625 6.75002ZM10 3.00002C9.01406 2.99757 8.03742 3.19067 7.12661 3.56817C6.21579 3.94566 5.38889 4.50005 4.69375 5.19924C4.12578 5.77424 3.62109 6.32737 3.125 6.90627V5.50002C3.125 5.33426 3.05915 5.17529 2.94194 5.05808C2.82473 4.94087 2.66576 4.87502 2.5 4.87502C2.33424 4.87502 2.17527 4.94087 2.05806 5.05808C1.94085 5.17529 1.875 5.33426 1.875 5.50002V8.62502C1.875 8.79078 1.94085 8.94975 2.05806 9.06697C2.17527 9.18418 2.33424 9.25002 2.5 9.25002H5.625C5.79076 9.25002 5.94973 9.18418 6.06694 9.06697C6.18415 8.94975 6.25 8.79078 6.25 8.62502C6.25 8.45926 6.18415 8.30029 6.06694 8.18308C5.94973 8.06587 5.79076 8.00002 5.625 8.00002H3.82812C4.38672 7.34221 4.94297 6.72268 5.57734 6.08049C6.44598 5.21186 7.55133 4.61847 8.75529 4.37446C9.95924 4.13045 11.2084 4.24665 12.3467 4.70853C13.485 5.17041 14.4619 5.95749 15.1555 6.97144C15.849 7.98538 16.2283 9.18121 16.2461 10.4095C16.2639 11.6378 15.9193 12.8441 15.2554 13.8777C14.5915 14.9113 13.6377 15.7263 12.5132 16.2209C11.3888 16.7155 10.1435 16.8678 8.93299 16.6587C7.72249 16.4496 6.60043 15.8885 5.70703 15.0453C5.64732 14.9889 5.57708 14.9448 5.50032 14.9155C5.42356 14.8862 5.34179 14.8724 5.25967 14.8747C5.17754 14.877 5.09668 14.8955 5.0217 14.929C4.94672 14.9626 4.87908 15.0106 4.82266 15.0703C4.76623 15.13 4.72212 15.2003 4.69283 15.277C4.66355 15.3538 4.64967 15.4356 4.652 15.5177C4.65432 15.5998 4.67279 15.6807 4.70636 15.7557C4.73993 15.8306 4.78795 15.8983 4.84766 15.9547C5.73785 16.7948 6.82012 17.4042 8 17.7298C9.17989 18.0554 10.4215 18.0873 11.6166 17.8226C12.8116 17.558 13.9237 17.005 14.8559 16.2117C15.788 15.4184 16.5118 14.4091 16.9642 13.2718C17.4165 12.1344 17.5836 10.9037 17.4509 9.68689C17.3182 8.47011 16.8897 7.30431 16.2029 6.29122C15.516 5.27813 14.5916 4.44854 13.5104 3.87485C12.4292 3.30117 11.224 3.00082 10 3.00002Z" fill="#1C1C1C"/>
</svg>
